<svg xmlns="http://www.w3.org/2000/svg" xmlns:xlink="http://www.w3.org/1999/xlink" width="1080" zoomAndPan="magnify" viewBox="0 0 810 809.999993" height="1080" preserveAspectRatio="xMidYMid meet" version="1.0"><defs><clipPath id="1e7e4082c3"><path d="M 405 0 C 181.324219 0 0 181.324219 0 405 C 0 628.675781 181.324219 810 405 810 C 628.675781 810 810 628.675781 810 405 C 810 181.324219 628.675781 0 405 0 " clip-rule="nonzero"/></clipPath><clipPath id="b7236c77f9"><path d="M 171.070312 107 L 639 107 L 639 705.785156 L 171.070312 705.785156 Z M 171.070312 107 " clip-rule="nonzero"/></clipPath><clipPath id="970905277f"><path d="M 171.070312 107 L 330 107 L 330 272 L 171.070312 272 Z M 171.070312 107 " clip-rule="nonzero"/></clipPath></defs><g clip-path="url(#1e7e4082c3)"><rect x="-81" width="972" fill="#ffafaf" y="-80.999999" height="971.999992" fill-opacity="1"/></g><g clip-path="url(#b7236c77f9)"><path fill="#000000" d="M 623.578125 705.785156 C 621.984375 705.785156 620.390625 705.515625 618.796875 705.003906 L 618.773438 705.003906 C 608.839844 701.644531 598.960938 697.867188 589.398438 693.75 C 558.796875 680.5625 529.324219 663.230469 499.335938 640.722656 C 471.972656 620.203125 310.4375 391.382812 227.316406 263.976562 C 171.09375 177.734375 171.363281 170.207031 171.484375 166.578125 C 172.195312 146.183594 190.21875 123.652344 214.34375 113.015625 C 234.132812 104.285156 253.136719 105.832031 266.523438 117.230469 C 267.871094 118.359375 271.011719 121.03125 324.191406 192.738281 C 400.449219 295.503906 533.761719 478.507812 577.628906 540.066406 C 599.179688 570.292969 613.207031 592.011719 626.273438 638.46875 C 630.273438 652.636719 634.097656 668.890625 637.996094 688.109375 C 639.050781 693.308594 637.308594 698.53125 633.335938 702.035156 C 630.566406 704.511719 627.109375 705.785156 623.578125 705.785156 Z M 622.769531 693.210938 C 623.894531 693.578125 624.707031 693.085938 625.097656 692.746094 C 625.464844 692.425781 626.054688 691.714844 625.808594 690.585938 C 621.960938 671.660156 618.207031 655.703125 614.308594 641.828125 C 601.804688 597.308594 588.292969 576.394531 567.5 547.273438 C 523.660156 485.738281 390.421875 302.882812 314.214844 200.140625 C 267.945312 137.726562 259.753906 127.917969 258.382812 126.59375 C 244.847656 115.074219 226.582031 121.203125 219.371094 124.390625 C 199.804688 133.019531 184.628906 151.183594 183.917969 166.773438 C 184.40625 169.519531 189.972656 183.9375 237.738281 257.1875 C 326.375 393.046875 483.324219 613.167969 506.789062 630.769531 C 535.992188 652.6875 564.632812 669.554688 594.324219 682.324219 C 603.570312 686.296875 613.15625 689.972656 622.769531 693.210938 Z M 622.769531 693.210938 " fill-opacity="1" fill-rule="nonzero"/></g><path fill="#000000" d="M 620.78125 699.117188 C 610.777344 695.734375 597.832031 690.121094 588.5625 686.125 C 591.75 668.867188 605.75 659.675781 623.453125 651.925781 C 627.355469 665.777344 628.015625 670.09375 631.914062 689.363281 C 633.214844 695.808594 627.011719 701.203125 620.78125 699.117188 Z M 620.78125 699.117188 " fill-opacity="1" fill-rule="nonzero"/><path fill="#000000" d="M 219.910156 247.257812 C 218.636719 247.257812 217.359375 246.867188 216.257812 246.058594 C 213.488281 244.046875 212.875 240.148438 214.910156 237.378906 C 233.324219 212.128906 258.1875 192.125 286.75 179.5 C 291.410156 177.4375 296.214844 175.992188 300.433594 174.695312 C 301.855469 174.253906 303.230469 173.835938 304.578125 173.417969 C 307.839844 172.363281 311.34375 174.15625 312.398438 177.4375 C 313.453125 180.699219 311.664062 184.207031 308.378906 185.257812 C 306.980469 185.699219 305.535156 186.140625 304.039062 186.609375 C 299.941406 187.859375 295.726562 189.132812 291.753906 190.898438 C 265.175781 202.640625 242.050781 221.246094 224.9375 244.734375 C 223.710938 246.375 221.824219 247.257812 219.910156 247.257812 Z M 219.910156 247.257812 " fill-opacity="1" fill-rule="nonzero"/><g clip-path="url(#970905277f)"><path fill="#000000" d="M 232.367188 271.675781 L 227.339844 263.953125 C 171.09375 177.734375 171.363281 170.207031 171.484375 166.578125 C 172.195312 146.183594 190.21875 123.652344 214.34375 113.015625 C 234.132812 104.285156 253.136719 105.832031 266.523438 117.230469 C 267.871094 118.359375 271.011719 121.03125 324.191406 192.738281 L 329.414062 199.773438 L 318.601562 203.132812 C 314.582031 204.355469 310.4375 205.632812 306.5625 207.324219 C 279.199219 219.410156 254.703125 239.585938 237.636719 264.101562 Z M 183.917969 166.773438 C 184.40625 169.421875 189.582031 182.929688 232.832031 249.660156 C 250.878906 226.394531 274.46875 207.9375 301.511719 195.972656 C 303.988281 194.871094 306.515625 193.960938 308.992188 193.128906 C 267.308594 136.988281 259.707031 127.871094 258.382812 126.621094 C 244.847656 115.097656 226.582031 121.226562 219.371094 124.414062 C 199.804688 133.019531 184.628906 151.183594 183.917969 166.773438 Z M 183.917969 166.773438 " fill-opacity="1" fill-rule="nonzero"/></g><path fill="#000000" d="M 499.949219 639.203125 C 499.851562 639.203125 499.730469 639.203125 499.632812 639.203125 C 496.199219 639.03125 493.574219 636.113281 493.746094 632.683594 C 494.164062 624.789062 496.050781 614.222656 502.820312 608.683594 C 506.226562 605.886719 510.417969 604.785156 514.929688 605.445312 C 515.617188 605.542969 516.453125 605.667969 517.382812 605.839844 C 520.152344 606.28125 528.5625 607.652344 530.820312 606.796875 C 531.089844 606.648438 531.800781 604.515625 531.210938 600.738281 L 531.066406 599.882812 C 530.257812 594.90625 529.128906 588.113281 533.320312 582.523438 C 537.441406 577.035156 544.871094 575.097656 553.695312 577.179688 C 554.824219 577.449219 556 577.769531 557.152344 578.089844 C 560.367188 578.96875 563.40625 579.804688 565.761719 579.265625 C 567.183594 578.945312 569.046875 572.988281 569.832031 570.4375 C 570.542969 568.160156 571.277344 565.804688 572.207031 563.722656 C 574.121094 559.433594 577.601562 556.320312 582.238281 554.699219 C 585.472656 553.574219 589.03125 555.3125 590.132812 558.550781 C 591.261719 561.785156 589.519531 565.339844 586.285156 566.441406 C 584.519531 567.054688 583.90625 567.988281 583.535156 568.796875 C 582.898438 570.195312 582.3125 572.105469 581.699219 574.117188 C 579.6875 580.636719 576.917969 589.585938 568.410156 591.425781 C 563.085938 592.601562 558.207031 591.253906 553.894531 590.074219 C 552.886719 589.804688 551.859375 589.511719 550.851562 589.292969 C 547.371094 588.457031 544.183594 588.75 543.277344 589.976562 C 542.246094 591.351562 542.835938 594.980469 543.324219 597.894531 L 543.472656 598.804688 C 544.871094 607.777344 542.367188 614.664062 536.605469 617.777344 C 531.703125 620.449219 524.078125 619.492188 515.398438 618.097656 C 514.539062 617.949219 513.777344 617.828125 513.140625 617.753906 C 511.890625 617.558594 511.253906 617.851562 510.6875 618.316406 C 508.3125 620.277344 506.519531 626.160156 506.152344 633.34375 C 505.980469 636.628906 503.234375 639.203125 499.949219 639.203125 Z M 499.949219 639.203125 " fill-opacity="1" fill-rule="nonzero"/><path fill="#000000" d="M 499.359375 595.738281 C 498.453125 595.738281 497.570312 595.347656 496.957031 594.585938 L 458.265625 545.875 C 449.929688 535.359375 441.296875 524.5 433.085938 513.539062 C 422.441406 499.320312 412.195312 484.464844 402.289062 470.125 L 255.855469 258.070312 C 254.902344 256.671875 255.242188 254.757812 256.640625 253.804688 C 258.039062 252.847656 259.953125 253.191406 260.90625 254.589844 L 407.316406 466.617188 C 417.195312 480.933594 427.421875 495.71875 437.988281 509.863281 C 446.152344 520.773438 454.734375 531.582031 463.070312 542.074219 L 501.765625 590.785156 C 502.820312 592.109375 502.597656 594.046875 501.273438 595.101562 C 500.710938 595.519531 500.023438 595.738281 499.359375 595.738281 Z M 499.359375 595.738281 " fill-opacity="1" fill-rule="nonzero"/><path fill="#000000" d="M 530.722656 576.886719 C 529.863281 576.886719 528.980469 576.519531 528.367188 575.808594 C 521.132812 567.300781 513.828125 558.058594 506.742188 549.109375 C 496.566406 536.265625 486.980469 524.128906 479.453125 516.53125 C 463.046875 500.007812 337.457031 318.792969 288.835938 246.71875 C 287.878906 245.320312 288.246094 243.410156 289.667969 242.453125 C 291.066406 241.496094 292.980469 241.863281 293.9375 243.285156 C 349.890625 326.246094 468.566406 496.820312 483.839844 512.191406 C 491.613281 520.011719 501.324219 532.292969 511.597656 545.285156 C 518.632812 554.1875 525.941406 563.402344 533.101562 571.8125 C 534.203125 573.113281 534.03125 575.046875 532.757812 576.152344 C 532.121094 576.640625 531.410156 576.886719 530.722656 576.886719 Z M 530.722656 576.886719 " fill-opacity="1" fill-rule="nonzero"/><path fill="#000000" d="M 559.753906 556.121094 C 558.847656 556.121094 557.9375 555.707031 557.324219 554.945312 C 528.171875 517.390625 500.023438 479.757812 472.804688 443.378906 C 445.613281 407.023438 417.488281 369.417969 388.359375 331.910156 C 375.707031 315.605469 362.714844 297.171875 350.132812 279.347656 C 337.410156 261.328125 324.265625 242.671875 311.882812 226.863281 C 310.828125 225.511719 311.074219 223.601562 312.398438 222.546875 C 313.746094 221.492188 315.660156 221.738281 316.714844 223.0625 C 329.195312 238.996094 342.386719 257.703125 355.160156 275.792969 C 367.691406 293.566406 380.636719 311.929688 393.214844 328.109375 C 422.371094 365.664062 450.519531 403.296875 477.710938 439.675781 C 504.902344 476.03125 533.027344 513.636719 562.15625 551.171875 C 563.210938 552.519531 562.964844 554.429688 561.617188 555.484375 C 561.050781 555.902344 560.390625 556.121094 559.753906 556.121094 Z M 559.753906 556.121094 " fill-opacity="1" fill-rule="nonzero"/></svg>